HIERARCHY
ROOT Hips
{
  OFFSET 0 0 0
  CHANNELS 6 Xposition Yposition Zposition Zrotation Yrotation Xrotation
  JOINT LeftThigh
  {
    OFFSET 8.409438 0 -5.917753
    CHANNELS 3 Zrotation Yrotation Xrotation
    JOINT LeftLeg
    {
      OFFSET 0 0 -42.358652
      CHANNELS 3 Zrotation Yrotation Xrotation
      JOINT LeftFoot
      {
        OFFSET 0 0 -39.357303
        CHANNELS 3 Zrotation Yrotation Xrotation
      }
    }
  }
  JOINT RightThigh
  {
    OFFSET -8.409438 0 -5.917753
    CHANNELS 3 Zrotation Yrotation Xrotation
    JOINT RightLeg
    {
      OFFSET 0 0 -42.358652
      CHANNELS 3 Zrotation Yrotation Xrotation
      JOINT RightFoot
      {
        OFFSET 0 0 -39.357303
        CHANNELS 3 Zrotation Yrotation Xrotation
      }
    }
  }
  JOINT SpineLow
  {
    OFFSET 0 0 4.719101
    CHANNELS 3 Zrotation Yrotation Xrotation
    JOINT SpineMid
    {
      OFFSET 0 0 12.899191
      CHANNELS 3 Zrotation Yrotation Xrotation
      JOINT Chest
      {
        OFFSET 0 0 12.899191
        CHANNELS 3 Zrotation Yrotation Xrotation
        JOINT LeftShoulder
        {
          OFFSET 7.550562 1.41573 9.438202
          CHANNELS 3 Zrotation Yrotation Xrotation
          JOINT LeftArm
          {
            OFFSET 9.155056 0 4.247191
            CHANNELS 3 Zrotation Yrotation Xrotation
            JOINT LeftForearm
            {
              OFFSET 0 0 25.771955
              CHANNELS 3 Zrotation Yrotation Xrotation
              JOINT LeftHand
              {
                OFFSET 0 0 25.197169
                CHANNELS 3 Zrotation Yrotation Xrotation
              }
            }
          }
        }
        JOINT RightShoulder
        {
          OFFSET -7.550562 1.41573 9.438202
          CHANNELS 3 Zrotation Yrotation Xrotation
          JOINT RightArm
          {
            OFFSET -9.155056 0 4.247191
            CHANNELS 3 Zrotation Yrotation Xrotation
            JOINT RightForearm
            {
              OFFSET 0 0 -25.771955
              CHANNELS 3 Zrotation Yrotation Xrotation
              JOINT RightHand
              {
                OFFSET 0 0 -25.197169
                CHANNELS 3 Zrotation Yrotation Xrotation
              }
            }
          }
        }
        JOINT Neck
        {
          OFFSET 0 0 15.101124
          CHANNELS 3 Zrotation Yrotation Xrotation
          JOINT Head
          {
            OFFSET 0 0 11.325843
            CHANNELS 3 Zrotation Yrotation Xrotation
          }
        }
      }
    }
  }
}
MOTION
Frames: 16
Frame Time: 0.01
0.0  94.382019  0.0  8.587911  -63.598352  -93.427006  2.097645  16.749405  -29.280655  16.335905  -45.026355  55.521542  10.223283  -3.935573  0.171507  -19.600538  5.638102  -22.859136  -0.477959  7.15996  31.145497  -2.924603  -2.619859  7.22407  -0.561699  0.482935  2.551629  -1.482664  1.377506  6.963899  -1.482664  1.377506  6.963898  -7.563858  3.390356  2.642496  -63.137452  76.842503  18.403757  -46.078509  24.127057  100.892274  71.271434  9.63717  32.291162  -0.148826  -10.928706  -5.515835  46.91527  67.455425  -33.340891  -33.435923  -24.607391  -131.576473  50.747404  17.397259  0.708105  -3.315222  3.519166  -5.396321  -2.454753  2.668974  -4.026998  
0.0  94.382019  0.0  7.723166  -61.285261  -92.871838  1.457935  17.208218  -28.617473  17.680057  -45.185533  53.931966  10.510141  -3.992886  0.305231  -16.966105  5.857979  -21.577735  2.417212  4.786198  30.329899  -4.367171  -3.129874  7.007081  -0.526421  0.437003  2.567401  -1.39085  1.248737  7.008603  -1.39085  1.248736  7.008604  -7.169526  3.456057  2.357979  -68.31607  77.232724  14.212882  -45.711737  25.138023  101.60337  70.43141  9.416283  32.290856  -0.389092  -10.646158  -5.856695  49.108582  67.509202  -32.335392  -33.724932  -24.26781  -131.59986  51.217242  17.227434  0.904765  -3.682712  3.942096  -5.350515  -2.726631  2.989196  -3.987688  
0.0  94.382019  0.0  7.048721  -58.89568  -92.595873  1.050727  17.61231  -27.765938  18.89413  -45.255241  52.371751  10.691148  -4.084136  0.322926  -14.271447  6.088809  -20.239294  5.444191  2.221514  29.386868  -6.300056  -3.477376  6.834337  -0.50931  0.401394  2.603109  -1.347248  1.150432  7.107181  -1.347249  1.150432  7.107181  -6.824402  3.546891  1.936697  -73.284127  77.555756  9.987443  -45.323485  26.132998  102.146506  69.778395  9.182715  32.377842  -0.527449  -10.34283  -6.275673  51.471828  67.46634  -31.045967  -34.072863  -23.852133  -131.578001  51.619436  17.073188  1.072387  -3.995995  4.359965  -5.333736  -2.9577  3.305291  -3.970017  
0.0  94.382019  0.0  6.557505  -56.35524  -92.560109  0.829551  18.019436  -26.735476  19.862796  -45.227501  50.892968  10.789655  -4.144339  0.223299  -11.735564  6.382007  -18.903965  8.011923  -0.047406  28.338747  -8.289927  -3.749359  6.774698  -0.522897  0.374693  2.646251  -1.386466  1.07989  7.22536  -1.386467  1.07989  7.22536  -6.538328  3.74055  1.537751  -78.164406  77.685265  5.611739  -44.91279  26.863241  102.470551  69.351746  8.844084  32.515329  -0.528515  -9.936474  -6.64671  53.708655  67.355763  -29.729585  -34.479267  -23.417753  -131.48538  51.952252  16.897312  1.194378  -4.245116  4.790288  -5.298678  -3.140643  3.630022  -3.938576  
0.0  94.382019  0.0  6.249425  -53.701879  -92.720383  0.825609  18.387121  -25.558971  20.499424  -45.132455  49.604045  10.734667  -4.133437  -0.008374  -9.413818  6.818355  -17.624483  9.62224  -1.788416  27.232728  -10.000513  -4.039966  6.864393  -0.548901  0.364946  2.676337  -1.458016  1.056772  7.307354  -1.458016  1.056772  7.307354  -6.331554  4.012601  1.209003  -83.002814  77.703555  1.126529  -44.479017  27.09606  102.539322  69.129911  8.36604  32.613179  -0.611983  -9.607072  -6.938515  56.327131  67.142988  -27.994748  -34.905217  -22.983683  -131.3429  52.280682  16.7056  1.316924  -4.463137  5.218198  -5.15973  -3.301151  3.951875  -3.829161  
0.0  94.382019  0.0  6.101668  -50.930744  -93.005478  1.029175  18.593631  -24.27239  20.706563  -44.907841  48.540492  10.486323  -4.002866  -0.294136  -7.576818  7.315423  -16.509243  10.010825  -2.89834  26.181568  -11.848133  -4.222757  7.159059  -0.566498  0.386123  2.696822  -1.503362  1.116971  7.362625  -1.503362  1.116971  7.362625  -6.306102  4.250045  0.938488  -87.590965  77.579215  -3.248269  -44.025253  26.852308  102.380237  69.117363  7.752695  32.547004  -0.787207  -9.29651  -7.125677  58.700854  66.803624  -26.365968  -35.291458  -22.602609  -131.199307  52.656027  16.539368  1.51882  -4.728331  5.573656  -4.930741  -3.498623  4.218971  -3.652153  
0.0  94.382019  0.0  6.087365  -48.072572  -93.374103  1.286193  18.54276  -22.972122  20.545946  -44.4141  47.704266  9.949831  -3.894843  -0.382674  -6.168606  7.989162  -15.547453  7.993367  -3.152662  25.256607  -14.243883  -3.707267  8.203611  -0.566349  0.444409  2.725464  -1.495929  1.276671  7.439753  -1.495929  1.276671  7.439753  -6.430415  4.413328  0.597914  -91.776826  77.388558  -7.292932  -43.535513  26.245396  102.039858  69.327687  7.057779  32.328242  -1.211952  -9.216065  -7.421409  61.409015  66.29828  -24.426493  -35.631689  -22.3009  -131.054699  53.078657  16.42179  1.821553  -5.065913  5.820334  -4.680638  -3.751711  4.404666  -3.459344  
0.0  94.382019  0.0  6.108248  -45.103793  -93.688386  1.325001  18.132981  -21.901568  19.975633  -43.694649  47.396569  8.871305  -3.685006  -0.284339  -5.396156  8.836323  -14.877855  3.533389  -2.36221  25.095816  -14.489389  -3.546367  9.302937  -0.564355  0.517885  2.743693  -1.481846  1.477381  7.488197  -1.481846  1.477381  7.488197  -6.684389  4.548165  0.282178  -95.61388  77.127202  -11.102898  -42.977576  25.371381  101.596294  69.674408  6.272742  31.911763  -1.611428  -9.117114  -7.64304  63.702656  65.696159  -22.72796  -35.924677  -22.104671  -130.912649  53.536306  16.315314  2.209389  -5.440628  6.010739  -4.38053  -4.033745  4.547703  -3.228998  
0.0  94.382019  0.0  6.138493  -42.313025  -94.005384  1.280725  17.416089  -21.156749  18.910842  -42.855116  47.931575  7.742518  -3.378303  -0.300243  -5.196417  9.774247  -14.425137  -2.229347  -1.195162  26.33179  -12.965181  -3.574628  9.10081  -0.527136  0.598366  2.77136  -1.370457  1.693377  7.563296  -1.370457  1.693377  7.563296  -6.978603  4.89669  -0.316305  -98.458266  77.127751  -14.015674  -42.336365  24.37568  101.136221  70.006272  5.422488  31.334276  -2.090463  -9.104403  -7.886539  66.097181  65.008178  -20.924445  -36.176307  -21.982278  -130.768252  53.991387  16.199897  2.604878  -5.829906  6.171615  -4.068883  -4.327192  4.668219  -2.989952  
0.0  94.382019  0.0  5.94142  -39.441598  -93.981127  0.815734  16.432068  -21.001345  17.451738  -41.96883  49.245438  6.8454  -3.105214  -0.561218  -5.870987  10.442834  -14.145628  -8.135096  0.279577  27.800166  -10.278345  -3.603606  8.387737  -0.506954  0.643278  2.782277  -1.309953  1.813854  7.592957  -1.309953  1.813854  7.592956  -7.212578  5.005353  -0.667414  -102.168021  76.824611  -17.826426  -41.638489  23.4039  100.669171  70.271056  4.615895  30.646842  -2.3889  -8.965386  -8.133013  68.026828  64.274084  -19.372065  -36.368119  -21.94902  -130.637101  54.493921  16.061653  2.938471  -6.212219  6.339619  -3.770853  -4.615353  4.79379  -2.760909  
0.0  94.382019  0.0  5.500601  -36.772038  -93.792886  0.406285  15.214219  -21.171797  15.647597  -40.923953  51.110227  6.293433  -2.931363  -0.979196  -6.952963  10.765126  -13.711274  -13.23275  2.015196  28.802171  -6.956001  -3.844277  7.721631  -0.457779  0.645276  2.785201  -1.175399  1.813721  7.602291  -1.175399  1.813721  7.602292  -7.410851  5.121245  -0.918014  -105.796609  76.506541  -21.591208  -40.920929  22.637173  100.243473  70.499026  3.91396  29.956738  -3.507977  -9.539497  -8.64333  72.253777  63.266628  -16.173436  -36.511521  -21.9484  -130.520874  55.123104  15.891949  3.189633  -6.57261  6.555758  -3.429838  -4.887317  4.95451  -2.499126  
0.0  94.382019  0.0  4.847967  -34.205664  -93.452577  0.107796  13.844842  -21.548464  13.532458  -39.760147  53.215067  5.982573  -2.761559  -1.414479  -8.277782  10.808927  -13.164084  -16.924391  3.365802  29.153292  -4.022878  -4.276351  7.339102  -0.390769  0.611746  2.767326  -0.996779  1.714262  7.555653  -0.996779  1.714262  7.555653  -7.50273  5.219903  -1.054836  -109.453632  76.244448  -25.257516  -40.216801  22.0712  99.838852  70.733956  3.31034  29.335131  -3.73971  -9.317931  -8.704771  73.710743  62.465671  -14.81469  -36.682581  -21.881594  -130.393217  55.766374  15.680863  3.322706  -6.953026  6.780792  -3.021556  -5.175154  5.120844  -2.186379  
0.0  94.382019  0.0  4.039706  -31.827125  -93.05773  0.102801  12.363299  -21.948246  11.263226  -38.589226  55.187351  5.601838  -2.576926  -1.804027  -9.571992  10.56605  -12.535108  -19.094877  3.909123  28.927852  -2.424509  -4.548094  7.42621  -0.286174  0.545141  2.733686  -0.719626  1.5202  7.466895  -0.719626  1.5202  7.466896  -7.6368  5.313343  -1.187268  -113.408369  76.124559  -29.213259  -39.508496  21.618751  99.482146  70.967844  2.779699  28.756321  -4.066986  -9.151961  -8.682234  75.313335  61.610439  -13.27795  -36.965443  -21.634126  -130.203831  56.321105  15.447597  3.356645  -7.341332  7.042512  -2.520008  -5.469988  5.313113  -1.802944  
0.0  94.382019  0.0  3.171478  -29.579821  -92.679594  0.267983  10.850901  -22.328906  9.004813  -37.499342  56.832434  5.271768  -2.413839  -2.075164  -10.685322  10.138707  -11.875847  -19.825648  3.203121  28.542651  -2.582186  -4.230871  7.737312  -0.179031  0.451855  2.680974  -0.43867  1.253179  7.325592  -0.43867  1.253179  7.325592  -7.640605  5.51101  -1.133231  -117.248781  75.982196  -33.013498  -38.802485  21.191602  99.194443  71.218567  2.288325  28.155564  -4.296478  -8.88401  -8.477877  76.582137  60.850168  -11.871612  -37.245216  -21.33195  -130.01328  56.73209  15.250914  3.406975  -7.701356  7.376223  -1.970988  -5.744178  5.558066  -1.383034  
0.0  94.382019  0.0  2.367535  -27.553685  -92.37101  0.742192  9.393419  -22.625801  6.859243  -36.486066  58.042068  4.928343  -2.286776  -2.340226  -11.204393  9.677536  -11.28614  -19.804172  1.940302  28.485615  -3.875712  -3.85896  7.853201  -0.060486  0.347187  2.615385  -0.127602  0.95426  7.148478  -0.127602  0.95426  7.148478  -7.581135  5.788778  -0.95524  -121.09842  75.785863  -36.895301  -38.117426  20.693287  98.955022  71.408267  1.805212  27.582258  -4.455758  -8.552495  -8.151089  77.947503  60.101879  -10.355977  -37.552204  -20.939853  -129.81525  57.091994  15.091937  3.509909  -7.960628  7.813301  -1.407255  -5.943129  5.879478  -0.951643  
0.0  94.382019  0.0  1.694805  -25.598488  -92.198666  1.370018  8.030834  -22.744809  4.97677  -35.567488  58.726504  4.5287  -2.190077  -2.584535  -11.615227  9.465551  -10.741037  -19.084163  0.315544  28.578218  -5.887893  -3.650175  7.868543  0.056055  0.256643  2.566453  0.180243  0.694656  7.01597  0.180243  0.694656  7.015971  -7.51212  6.054398  -0.897943  -125.017473  75.642689  -40.870624  -37.42078  20.116608  98.8114  71.550105  1.379114  26.972401  -4.660362  -8.233324  -7.811136  79.192063  59.432515  -8.935  -37.835474  -20.574566  -129.633445  57.408073  14.972523  3.709195  -8.236829  8.242429  -0.933785  -6.154264  6.195719  -0.587467  
